<?xml version="1.0" standalone="no"?>
<!DOCTYPE svg PUBLIC "-//W3C//DTD SVG 20010904//EN"
 "http://www.w3.org/TR/2001/REC-SVG-20010904/DTD/svg10.dtd">
<svg version="1.0" xmlns="http://www.w3.org/2000/svg"
 width="1378.000000pt" height="492.000000pt" viewBox="0 0 1378.000000 492.000000"
 preserveAspectRatio="xMidYMid meet">
<metadata>
Created by potrace 1.16, written by Peter Selinger 2001-2019
</metadata>
<g transform="translate(0.000000,492.000000) scale(0.100000,-0.100000)"
fill="#000000" stroke="none">
<path d="M2110 4643 c-150 -25 -282 -121 -340 -247 -61 -134 -138 -294 -355
-741 -40 -82 -110 -226 -155 -320 -177 -366 -238 -491 -380 -780 -166 -338
-288 -589 -380 -780 -34 -71 -87 -181 -118 -243 -44 -89 -54 -117 -45 -130 9
-15 37 -17 226 -20 206 -2 219 -1 264 20 53 25 153 118 153 142 0 9 4 24 10
34 16 30 236 485 255 527 19 45 34 81 45 110 53 135 143 291 232 398 26 32 54
73 62 90 7 18 23 53 35 79 11 26 21 50 21 53 0 2 17 42 39 87 21 46 55 119 76
163 81 173 110 234 162 345 73 153 123 259 166 350 19 41 45 97 57 123 13 27
29 51 37 54 21 8 46 -23 78 -97 36 -84 74 -167 124 -274 23 -47 41 -87 41 -90
0 -2 20 -48 46 -102 25 -55 49 -108 54 -119 72 -171 69 -167 104 -162 17 3 49
10 71 17 86 25 221 46 362 56 88 6 100 9 93 23 -4 9 -13 27 -18 41 -6 14 -27
60 -47 103 -19 43 -35 81 -35 83 0 3 -29 66 -65 140 -36 74 -65 137 -65 139 0
2 -20 46 -44 97 -59 124 -106 229 -106 233 0 2 -23 52 -51 112 -28 59 -61 131
-73 158 -13 28 -34 73 -47 100 -73 158 -294 261 -489 228z"/>
<path d="M10327 4004 c-4 -4 -7 -429 -7 -945 0 -808 2 -948 16 -1019 21 -113
48 -182 106 -268 56 -83 125 -142 216 -184 113 -52 152 -58 407 -58 l235 0 0
165 0 164 -187 4 c-104 2 -202 7 -219 12 -54 12 -125 75 -157 138 -51 101 -57
165 -56 659 0 246 4 450 8 453 5 2 144 5 310 5 l301 1 0 164 0 165 -307 2
-308 3 -2 270 -2 270 -174 3 c-95 1 -176 -1 -180 -4z"/>
<path d="M6387 3485 c-108 -24 -178 -49 -292 -107 -76 -39 -121 -74 -216 -168
-184 -181 -279 -422 -279 -709 0 -342 155 -646 426 -837 39 -28 179 -94 198
-94 8 0 17 -4 20 -9 3 -5 18 -11 33 -14 16 -3 59 -12 98 -21 87 -20 284 -21
380 -2 164 32 318 110 424 213 18 18 37 33 42 33 5 0 9 -54 9 -120 l0 -120
175 0 175 0 0 575 c0 604 0 600 -48 745 -68 204 -190 366 -363 480 -73 48
-120 71 -244 120 -23 9 -86 24 -163 40 -71 13 -303 11 -375 -5z m310 -326 c62
-14 113 -28 138 -38 150 -62 281 -189 342 -336 70 -164 70 -396 1 -559 -69
-164 -223 -307 -377 -351 -31 -9 -70 -20 -87 -26 -38 -11 -211 -12 -250 0 -16
5 -49 15 -74 22 -150 44 -294 176 -368 339 -49 106 -62 169 -62 293 0 67 4
134 9 151 5 17 15 51 22 76 16 57 91 183 138 233 73 78 189 149 286 175 124
34 201 40 282 21z"/>
<path d="M8755 3489 c-105 -22 -142 -31 -162 -40 -13 -5 -34 -13 -48 -19 -199
-80 -363 -247 -430 -439 -53 -151 -56 -194 -53 -851 l3 -605 175 0 175 0 5
615 c5 558 8 620 24 670 39 117 87 189 160 239 82 57 106 67 232 100 75 20
193 10 289 -24 130 -45 243 -159 282 -282 41 -130 43 -169 43 -755 l0 -568
175 0 175 0 0 617 c0 426 -4 636 -12 677 -51 268 -187 464 -395 568 -48 25
-99 48 -113 52 -158 47 -219 56 -355 55 -71 -1 -148 -5 -170 -10z"/>
<path d="M12305 3486 c-66 -14 -174 -45 -190 -56 -5 -4 -29 -14 -53 -24 -57
-22 -174 -101 -243 -164 -53 -48 -148 -172 -186 -242 -63 -114 -108 -275 -118
-415 -14 -202 40 -454 125 -588 16 -26 30 -52 30 -57 0 -6 3 -10 8 -10 4 0 19
-19 34 -43 32 -51 155 -171 219 -215 67 -45 208 -110 284 -130 108 -29 160
-36 275 -35 161 1 300 27 420 80 64 28 150 73 160 83 3 3 21 17 40 30 56 37
164 150 209 216 53 80 104 182 130 264 25 79 51 243 51 325 0 85 -26 245 -52
323 -60 178 -186 360 -318 460 -19 15 -44 35 -55 45 -25 24 -195 107 -217 107
-9 0 -19 4 -22 9 -3 4 -20 11 -38 14 -18 4 -64 13 -103 22 -83 18 -301 18
-390 1z m299 -327 c90 -23 123 -34 166 -52 155 -64 293 -225 340 -397 7 -25
16 -58 21 -74 20 -67 8 -264 -21 -341 -5 -11 -14 -36 -21 -55 -42 -113 -142
-235 -243 -298 -85 -52 -119 -67 -216 -92 -71 -18 -261 -6 -325 20 -11 4 -36
14 -55 21 -19 7 -57 28 -85 45 -257 167 -358 486 -257 809 35 110 112 216 213
290 54 41 155 95 175 95 8 0 22 4 32 9 50 27 208 38 276 20z"/>
<path d="M4790 3465 c-158 -36 -252 -88 -360 -202 -62 -66 -84 -97 -110 -160
-73 -174 -74 -186 -71 -923 l2 -645 177 0 177 0 5 650 5 650 24 69 c17 48 39
84 75 123 87 96 190 127 400 121 l131 -3 0 165 0 165 -200 1 c-129 1 -220 -3
-255 -11z"/>
<path d="M3423 2377 c-21 -115 -65 -271 -98 -344 -8 -18 -23 -50 -32 -70 -9
-21 -36 -71 -60 -111 -24 -41 -43 -77 -43 -81 0 -4 8 -25 19 -47 10 -21 39
-83 65 -136 50 -104 91 -150 172 -187 40 -19 63 -21 261 -21 207 0 219 1 231
20 8 14 9 25 2 38 -12 21 -80 172 -80 177 0 5 -38 90 -85 190 -18 39 -52 113
-75 165 -23 52 -62 136 -86 187 -24 50 -44 94 -44 97 0 16 -111 246 -119 246
-3 0 -16 -55 -28 -123z"/>
<path d="M3139 2178 c-3 -21 -2 -38 2 -38 14 0 20 -37 10 -61 -5 -13 -10 -18
-10 -11 -1 7 -5 10 -11 7 -5 -3 -7 0 -4 9 6 16 -24 76 -38 76 -4 0 -8 9 -8 20
0 32 -17 23 -18 -10 0 -16 4 -30 10 -30 7 0 6 -5 -2 -15 -6 -8 -9 -19 -5 -25
4 -6 -1 -22 -9 -35 -9 -14 -12 -25 -6 -25 22 0 8 -28 -17 -36 -21 -5 -24 -8
-10 -11 9 -3 17 -12 17 -21 1 -12 5 -10 15 8 l14 25 1 -25 c1 -24 1 -24 15 -6
15 20 15 20 15 0 0 -11 -5 -25 -12 -32 -9 -9 -9 -15 0 -24 9 -9 12 -7 12 10 0
12 4 22 9 22 8 0 59 97 80 152 4 13 5 32 0 43 -6 17 -8 15 -8 -9 -1 -41 -17
-22 -28 34 l-9 45 -5 -37z"/>
</g>
</svg>
